<!-- stars: 150 -->
<svg xmlns="http://www.w3.org/2000/svg" xmlns:xlink="http://www.w3.org/1999/xlink" width="1024" height="400">\n<path  d="M 0 0
L 1024 0
L 1024 400
L 0 400
L 0 0" style="stroke-width:0;stroke:rgba(255,255,255,1.0);fill:rgba(255,255,255,1.0)"/><path  d="M 38 11
L 965 11
L 965 351
L 38 351
L 38 11" style="stroke-width:0;stroke:rgba(255,255,255,1.0);fill:rgba(255,255,255,1.0)"/><path  d="M 38 351
L 965 351" style="stroke-width:2;stroke:rgba(85,85,85,1.0);fill:none"/><path  d="M 38 351
L 38 356" style="stroke-width:2;stroke:rgba(85,85,85,1.0);fill:none"/><text x="5" y="373" style="stroke-width:0;stroke:none;fill:rgba(51,51,51,1.0);font-size:12.8px;font-family:'Roboto Medium',sans-serif">2024-08-26</text><path  d="M 154 351
L 154 356" style="stroke-width:2;stroke:rgba(85,85,85,1.0);fill:none"/><text x="121" y="373" style="stroke-width:0;stroke:none;fill:rgba(51,51,51,1.0);font-size:12.8px;font-family:'Roboto Medium',sans-serif">2024-09-12</text><path  d="M 270 351
L 270 356" style="stroke-width:2;stroke:rgba(85,85,85,1.0);fill:none"/><text x="237" y="373" style="stroke-width:0;stroke:none;fill:rgba(51,51,51,1.0);font-size:12.8px;font-family:'Roboto Medium',sans-serif">2024-09-28</text><path  d="M 386 351
L 386 356" style="stroke-width:2;stroke:rgba(85,85,85,1.0);fill:none"/><text x="353" y="373" style="stroke-width:0;stroke:none;fill:rgba(51,51,51,1.0);font-size:12.8px;font-family:'Roboto Medium',sans-serif">2024-10-14</text><path  d="M 502 351
L 502 356" style="stroke-width:2;stroke:rgba(85,85,85,1.0);fill:none"/><text x="469" y="373" style="stroke-width:0;stroke:none;fill:rgba(51,51,51,1.0);font-size:12.8px;font-family:'Roboto Medium',sans-serif">2024-10-31</text><path  d="M 618 351
L 618 356" style="stroke-width:2;stroke:rgba(85,85,85,1.0);fill:none"/><text x="585" y="373" style="stroke-width:0;stroke:none;fill:rgba(51,51,51,1.0);font-size:12.8px;font-family:'Roboto Medium',sans-serif">2024-11-16</text><path  d="M 734 351
L 734 356" style="stroke-width:2;stroke:rgba(85,85,85,1.0);fill:none"/><text x="701" y="373" style="stroke-width:0;stroke:none;fill:rgba(51,51,51,1.0);font-size:12.8px;font-family:'Roboto Medium',sans-serif">2024-12-02</text><path  d="M 850 351
L 850 356" style="stroke-width:2;stroke:rgba(85,85,85,1.0);fill:none"/><text x="817" y="373" style="stroke-width:0;stroke:none;fill:rgba(51,51,51,1.0);font-size:12.8px;font-family:'Roboto Medium',sans-serif">2024-12-19</text><path  d="M 965 351
L 965 356" style="stroke-width:2;stroke:rgba(85,85,85,1.0);fill:none"/><text x="932" y="373" style="stroke-width:0;stroke:none;fill:rgba(51,51,51,1.0);font-size:12.8px;font-family:'Roboto Medium',sans-serif">2025-01-04</text><text x="487" y="395" style="stroke-width:0;stroke:none;fill:rgba(51,51,51,1.0);font-size:12.8px;font-family:'Roboto Medium',sans-serif">Time</text><path  d="M 967 351
L 967 11" style="stroke-width:2;stroke:rgba(85,85,85,1.0);fill:none"/><path  d="M 967 351
L 972 351" style="stroke-width:2;stroke:rgba(85,85,85,1.0);fill:none"/><text x="977" y="357" style="stroke-width:0;stroke:none;fill:rgba(51,51,51,1.0);font-size:12.8px;font-family:'Roboto Medium',sans-serif">0</text><path  d="M 967 307
L 972 307" style="stroke-width:2;stroke:rgba(85,85,85,1.0);fill:none"/><text x="977" y="313" style="stroke-width:0;stroke:none;fill:rgba(51,51,51,1.0);font-size:12.8px;font-family:'Roboto Medium',sans-serif">19</text><path  d="M 967 264
L 972 264" style="stroke-width:2;stroke:rgba(85,85,85,1.0);fill:none"/><text x="977" y="270" style="stroke-width:0;stroke:none;fill:rgba(51,51,51,1.0);font-size:12.8px;font-family:'Roboto Medium',sans-serif">38</text><path  d="M 967 221
L 972 221" style="stroke-width:2;stroke:rgba(85,85,85,1.0);fill:none"/><text x="977" y="227" style="stroke-width:0;stroke:none;fill:rgba(51,51,51,1.0);font-size:12.8px;font-family:'Roboto Medium',sans-serif">57</text><path  d="M 967 181
L 972 181" style="stroke-width:2;stroke:rgba(85,85,85,1.0);fill:none"/><text x="977" y="187" style="stroke-width:0;stroke:none;fill:rgba(51,51,51,1.0);font-size:12.8px;font-family:'Roboto Medium',sans-serif">75</text><path  d="M 967 137
L 972 137" style="stroke-width:2;stroke:rgba(85,85,85,1.0);fill:none"/><text x="977" y="143" style="stroke-width:0;stroke:none;fill:rgba(51,51,51,1.0);font-size:12.8px;font-family:'Roboto Medium',sans-serif">94</text><path  d="M 967 94
L 972 94" style="stroke-width:2;stroke:rgba(85,85,85,1.0);fill:none"/><text x="977" y="100" style="stroke-width:0;stroke:none;fill:rgba(51,51,51,1.0);font-size:12.8px;font-family:'Roboto Medium',sans-serif">113</text><path  d="M 967 51
L 972 51" style="stroke-width:2;stroke:rgba(85,85,85,1.0);fill:none"/><text x="977" y="57" style="stroke-width:0;stroke:none;fill:rgba(51,51,51,1.0);font-size:12.8px;font-family:'Roboto Medium',sans-serif">132</text><path  d="M 967 11
L 972 11" style="stroke-width:2;stroke:rgba(85,85,85,1.0);fill:none"/><text x="977" y="17" style="stroke-width:0;stroke:none;fill:rgba(51,51,51,1.0);font-size:12.8px;font-family:'Roboto Medium',sans-serif">150</text><text x="1009" y="150" style="stroke-width:0;stroke:none;fill:rgba(51,51,51,1.0);font-size:12.8px;font-family:'Roboto Medium',sans-serif" transform="rotate(90.00,1009,150)">Stargazers</text><path  d="M 38 351
L 45 348
L 45 346
L 45 344
L 45 341
L 45 339
L 45 337
L 45 335
L 45 332
L 47 330
L 48 328
L 50 326
L 51 323
L 52 321
L 57 319
L 57 317
L 57 314
L 62 312
L 84 310
L 86 307
L 96 305
L 109 303
L 112 301
L 114 298
L 123 296
L 123 294
L 123 292
L 123 289
L 125 287
L 134 285
L 136 283
L 142 280
L 148 278
L 150 276
L 190 273
L 207 271
L 215 269
L 220 267
L 244 264
L 255 262
L 292 260
L 296 258
L 297 255
L 321 253
L 325 251
L 329 249
L 338 246
L 339 244
L 343 242
L 348 239
L 361 237
L 371 235
L 377 233
L 377 230
L 379 228
L 381 226
L 382 224
L 394 221
L 406 219
L 449 217
L 480 215
L 507 212
L 537 210
L 539 208
L 561 205
L 568 203
L 572 201
L 574 199
L 587 196
L 597 194
L 598 192
L 643 190
L 648 187
L 653 185
L 654 183
L 660 181
L 688 178
L 751 176
L 759 174
L 759 171
L 760 169
L 762 167
L 766 165
L 767 162
L 767 160
L 772 158
L 776 156
L 776 153
L 778 151
L 779 149
L 787 147
L 789 144
L 792 142
L 795 140
L 809 137
L 810 135
L 810 133
L 825 131
L 827 128
L 828 126
L 829 124
L 830 122
L 835 119
L 839 117
L 844 115
L 845 113
L 845 110
L 845 108
L 846 106
L 849 103
L 849 101
L 849 99
L 852 97
L 853 94
L 857 92
L 860 90
L 864 88
L 866 85
L 866 83
L 866 81
L 867 79
L 867 76
L 867 74
L 869 72
L 870 69
L 880 67
L 880 65
L 881 63
L 881 60
L 906 58
L 907 56
L 907 54
L 909 51
L 912 49
L 921 47
L 926 45
L 928 42
L 928 40
L 930 38
L 936 35
L 937 33
L 948 31
L 949 29
L 949 26
L 949 24
L 951 22
L 955 20
L 955 17
L 964 15
L 965 13" style="stroke-width:2;stroke:rgba(129,199,239,1.0);fill:none"/></svg>